<svg width="20" height="21" viewBox="0 0 20 21" fill="none" xmlns="http://www.w3.org/2000/svg">
<path d="M10 0.0449219C4.48 0.0449219 0 4.52492 0 10.0449C0 15.5649 4.48 20.0449 10 20.0449C15.52 20.0449 20 15.5649 20 10.0449C20 4.52492 15.52 0.0449219 10 0.0449219ZM14.03 10.5749L11.03 13.5749C10.88 13.7249 10.69 13.7949 10.5 13.7949C10.31 13.7949 10.12 13.7249 9.97 13.5749C9.68 13.2849 9.68 12.8049 9.97 12.5149L11.69 10.7949H6.5C6.09 10.7949 5.75 10.4549 5.75 10.0449C5.75 9.63492 6.09 9.29492 6.5 9.29492H11.69L9.97 7.57492C9.68 7.28492 9.68 6.80492 9.97 6.51492C10.26 6.22492 10.74 6.22492 11.03 6.51492L14.03 9.51492C14.32 9.80492 14.32 10.2849 14.03 10.5749Z" fill="#EDF0FF"/>
</svg>
